  0
SECTION
  2
HEADER
  9
$ANGBASE
  50
0.0
  9
$ANGDIR
  70
  1
  9
$MEASUREMENT
  70
0
  0
ENDSEC
  0
SECTION
  2
TABLES
  0
TABLE
  2
LTYPE
  70
4
  0
LTYPE
  5
40F
  2
CONTINUOUS
  70
0
  3
Solid line
  72
65
  73
0
  40
0.0
  0
LTYPE
  5
410
  2
DASHDOT
 70
0
  3
Dash Dot ____ _ ____ _
 72
65
 73
4
 40
2.0
 49
1.25
 49
-0.25
 49
0.25
 49
-0.25
  0
LTYPE
  5
411
  2
DASHED
 70
0
  3
Dashed __ __ __ __ __
 72
65
 73
2
 40
0.75
 49
0.5
 49
-0.25
  0
LTYPE
  5
43B
  2
DOTTED
 70
0
  3
Dotted .  .  .  .
 72
65
 73
2
 40
0.2
 49
0.0
 49
-0.2
  0
ENDTAB
  0
TABLE
  2
STYLE
  70
4
  0
STYLE
  2
KICAD
  70
0
  40
0
  41
1
  42
1
  50
0
  71
0
  3
isocp.shx
  0
STYLE
  2
KICADB
  70
0
  40
0
  41
1
  42
1
  50
0
  71
0
  3
isocp.shx
  0
STYLE
  2
KICADI
  70
0
  40
0
  41
1
  42
1
  50
15
  71
0
  3
isocp.shx
  0
STYLE
  2
KICADBI
  70
0
  40
0
  41
1
  42
1
  50
15
  71
0
  3
isocp.shx
  0
ENDTAB
  0
TABLE
  2
LAYER
  70
30
  0
LAYER
  2
BLACK
  70
0
  62
7
  6
CONTINUOUS
  0
LAYER
  2
GRAY1
  70
0
  62
251
  6
CONTINUOUS
  0
LAYER
  2
GRAY2
  70
0
  62
8
  6
CONTINUOUS
  0
LAYER
  2
GRAY3
  70
0
  62
9
  6
CONTINUOUS
  0
LAYER
  2
WHITE
  70
0
  62
7
  6
CONTINUOUS
  0
LAYER
  2
LYELLOW
  70
0
  62
51
  6
CONTINUOUS
  0
LAYER
  2
BLUE1
  70
0
  62
178
  6
CONTINUOUS
  0
LAYER
  2
GREEN1
  70
0
  62
98
  6
CONTINUOUS
  0
LAYER
  2
CYAN1
  70
0
  62
138
  6
CONTINUOUS
  0
LAYER
  2
RED1
  70
0
  62
18
  6
CONTINUOUS
  0
LAYER
  2
MAGENTA1
  70
0
  62
228
  6
CONTINUOUS
  0
LAYER
  2
BROWN1
  70
0
  62
58
  6
CONTINUOUS
  0
LAYER
  2
BLUE2
  70
0
  62
5
  6
CONTINUOUS
  0
LAYER
  2
GREEN2
  70
0
  62
3
  6
CONTINUOUS
  0
LAYER
  2
CYAN2
  70
0
  62
4
  6
CONTINUOUS
  0
LAYER
  2
RED2
  70
0
  62
1
  6
CONTINUOUS
  0
LAYER
  2
MAGENTA2
  70
0
  62
6
  6
CONTINUOUS
  0
LAYER
  2
BROWN2
  70
0
  62
54
  6
CONTINUOUS
  0
LAYER
  2
BLUE3
  70
0
  62
171
  6
CONTINUOUS
  0
LAYER
  2
GREEN3
  70
0
  62
91
  6
CONTINUOUS
  0
LAYER
  2
CYAN3
  70
0
  62
131
  6
CONTINUOUS
  0
LAYER
  2
RED3
  70
0
  62
11
  6
CONTINUOUS
  0
LAYER
  2
MAGENTA3
  70
0
  62
221
  6
CONTINUOUS
  0
LAYER
  2
YELLOW3
  70
0
  62
2
  6
CONTINUOUS
  0
LAYER
  2
BLUE4
  70
0
  62
5
  6
CONTINUOUS
  0
LAYER
  2
GREEN4
  70
0
  62
3
  6
CONTINUOUS
  0
LAYER
  2
CYAN4
  70
0
  62
4
  6
CONTINUOUS
  0
LAYER
  2
RED4
  70
0
  62
1
  6
CONTINUOUS
  0
LAYER
  2
MAGENTA4
  70
0
  62
6
  6
CONTINUOUS
  0
LAYER
  2
YELLOW4
  70
0
  62
2
  6
CONTINUOUS
  0
ENDTAB
  0
ENDSEC
  0
SECTION
  2
ENTITIES
0
LINE
8
BLACK
6
CONTINUOUS
10
147.454
20
-28.627
11
147.458
21
-28.6278
0
LINE
8
BLACK
6
CONTINUOUS
10
147.458
20
-28.6278
11
148.072
21
-28.7054
0
LINE
8
BLACK
6
CONTINUOUS
10
148.072
20
-28.7054
11
148.082
21
-28.7072
0
LINE
8
BLACK
6
CONTINUOUS
10
148.082
20
-28.7072
11
148.086
21
-28.7089
0
LINE
8
BLACK
6
CONTINUOUS
10
148.086
20
-28.7089
11
148.09
21
-28.7101
0
LINE
8
BLACK
6
CONTINUOUS
10
148.09
20
-28.7101
11
148.668
21
-28.9386
0
LINE
8
BLACK
6
CONTINUOUS
10
148.668
20
-28.9386
11
148.668
21
-28.9386
0
LINE
8
BLACK
6
CONTINUOUS
10
148.668
20
-28.9386
11
148.668
21
-28.9386
0
LINE
8
BLACK
6
CONTINUOUS
10
148.668
20
-28.9386
11
148.676
21
-28.9426
0
LINE
8
BLACK
6
CONTINUOUS
10
148.676
20
-28.9426
11
148.68
21
-28.9454
0
LINE
8
BLACK
6
CONTINUOUS
10
148.68
20
-28.9454
11
148.684
21
-28.9477
0
LINE
8
BLACK
6
CONTINUOUS
10
148.684
20
-28.9477
11
149.186
21
-29.3125
0
LINE
8
BLACK
6
CONTINUOUS
10
149.186
20
-29.3125
11
149.186
21
-29.3125
0
LINE
8
BLACK
6
CONTINUOUS
10
149.186
20
-29.3125
11
149.186
21
-29.3125
0
LINE
8
BLACK
6
CONTINUOUS
10
149.186
20
-29.3125
11
149.194
21
-29.3185
0
LINE
8
BLACK
6
CONTINUOUS
10
149.194
20
-29.3185
11
149.197
21
-29.3222
0
LINE
8
BLACK
6
CONTINUOUS
10
149.197
20
-29.3222
11
149.2
21
-29.3254
0
LINE
8
BLACK
6
CONTINUOUS
10
149.2
20
-29.3254
11
149.596
21
-29.8037
0
LINE
8
BLACK
6
CONTINUOUS
10
149.596
20
-29.8037
11
149.596
21
-29.8037
0
LINE
8
BLACK
6
CONTINUOUS
10
149.596
20
-29.8037
11
149.596
21
-29.8037
0
LINE
8
BLACK
6
CONTINUOUS
10
149.596
20
-29.8037
11
149.601
21
-29.8113
0
LINE
8
BLACK
6
CONTINUOUS
10
149.601
20
-29.8113
11
149.603
21
-29.8156
0
LINE
8
BLACK
6
CONTINUOUS
10
149.603
20
-29.8156
11
149.606
21
-29.8196
0
LINE
8
BLACK
6
CONTINUOUS
10
149.606
20
-29.8196
11
149.87
21
-30.3813
0
LINE
8
BLACK
6
CONTINUOUS
10
149.87
20
-30.3813
11
149.874
21
-30.39
0
LINE
8
BLACK
6
CONTINUOUS
10
149.874
20
-30.39
11
149.875
21
-30.3947
0
LINE
8
BLACK
6
CONTINUOUS
10
149.875
20
-30.3947
11
149.876
21
-30.3992
0
LINE
8
BLACK
6
CONTINUOUS
10
149.876
20
-30.3992
11
149.992
21
-31.0089
0
LINE
8
BLACK
6
CONTINUOUS
10
149.992
20
-31.0089
11
149.993
21
-31.0183
0
LINE
8
BLACK
6
CONTINUOUS
10
149.993
20
-31.0183
11
149.993
21
-31.0195
0
LINE
8
BLACK
6
CONTINUOUS
10
149.993
20
-31.0195
11
149.994
21
-31.0206
0
LINE
8
BLACK
6
CONTINUOUS
10
149.994
20
-31.0206
11
149.998
21
-31.1709
0
LINE
8
BLACK
6
CONTINUOUS
10
149.998
20
-31.1709
11
149.999
21
-31.1721
0
LINE
8
BLACK
6
CONTINUOUS
10
149.999
20
-31.1721
11
149.808
21
-124.079
0
LINE
8
BLACK
6
CONTINUOUS
10
149.808
20
-124.079
11
149.808
21
-124.784
0
LINE
8
BLACK
6
CONTINUOUS
10
149.808
20
-124.784
11
149.807
21
-124.789
0
LINE
8
BLACK
6
CONTINUOUS
10
149.807
20
-124.789
11
149.729
21
-125.379
0
LINE
8
BLACK
6
CONTINUOUS
10
149.729
20
-125.379
11
149.729
21
-125.379
0
LINE
8
BLACK
6
CONTINUOUS
10
149.729
20
-125.379
11
149.724
21
-125.398
0
LINE
8
BLACK
6
CONTINUOUS
10
149.724
20
-125.398
11
149.496
21
-125.949
0
LINE
8
BLACK
6
CONTINUOUS
10
149.496
20
-125.949
11
149.486
21
-125.966
0
LINE
8
BLACK
6
CONTINUOUS
10
149.486
20
-125.966
11
149.123
21
-126.44
0
LINE
8
BLACK
6
CONTINUOUS
10
149.123
20
-126.44
11
149.109
21
-126.453
0
LINE
8
BLACK
6
CONTINUOUS
10
149.109
20
-126.453
11
148.636
21
-126.817
0
LINE
8
BLACK
6
CONTINUOUS
10
148.636
20
-126.817
11
148.619
21
-126.827
0
LINE
8
BLACK
6
CONTINUOUS
10
148.619
20
-126.827
11
148.067
21
-127.055
0
LINE
8
BLACK
6
CONTINUOUS
10
148.067
20
-127.055
11
148.048
21
-127.06
0
LINE
8
BLACK
6
CONTINUOUS
10
148.048
20
-127.06
11
148.048
21
-127.06
0
LINE
8
BLACK
6
CONTINUOUS
10
148.048
20
-127.06
11
147.458
21
-127.138
0
LINE
8
BLACK
6
CONTINUOUS
10
147.458
20
-127.138
11
147.454
21
-127.138
0
LINE
8
BLACK
6
CONTINUOUS
10
147.454
20
-127.138
11
89.973
21
-127.202
0
LINE
8
BLACK
6
CONTINUOUS
10
89.973
20
-127.202
11
89.9682
21
-127.201
0
LINE
8
BLACK
6
CONTINUOUS
10
89.9682
20
-127.201
11
89.3452
21
-127.119
0
LINE
8
BLACK
6
CONTINUOUS
10
89.3452
20
-127.119
11
89.3452
21
-127.119
0
LINE
8
BLACK
6
CONTINUOUS
10
89.3452
20
-127.119
11
89.3263
21
-127.114
0
LINE
8
BLACK
6
CONTINUOUS
10
89.3263
20
-127.114
11
88.7443
21
-126.873
0
LINE
8
BLACK
6
CONTINUOUS
10
88.7443
20
-126.873
11
88.7273
21
-126.863
0
LINE
8
BLACK
6
CONTINUOUS
10
88.7273
20
-126.863
11
88.2276
21
-126.48
0
LINE
8
BLACK
6
CONTINUOUS
10
88.2276
20
-126.48
11
88.2207
21
-126.473
0
LINE
8
BLACK
6
CONTINUOUS
10
88.2207
20
-126.473
11
88.2137
21
-126.466
0
LINE
8
BLACK
6
CONTINUOUS
10
88.2137
20
-126.466
11
87.8303
21
-125.966
0
LINE
8
BLACK
6
CONTINUOUS
10
87.8303
20
-125.966
11
87.8254
21
-125.958
0
LINE
8
BLACK
6
CONTINUOUS
10
87.8254
20
-125.958
11
87.8205
21
-125.949
0
LINE
8
BLACK
6
CONTINUOUS
10
87.8205
20
-125.949
11
87.5794
21
-125.367
0
LINE
8
BLACK
6
CONTINUOUS
10
87.5794
20
-125.367
11
87.5744
21
-125.348
0
LINE
8
BLACK
6
CONTINUOUS
10
87.5744
20
-125.348
11
87.5744
21
-125.348
0
LINE
8
BLACK
6
CONTINUOUS
10
87.5744
20
-125.348
11
87.4924
21
-124.725
0
LINE
8
BLACK
6
CONTINUOUS
10
87.4924
20
-124.725
11
87.4915
21
-124.721
0
LINE
8
BLACK
6
CONTINUOUS
10
87.4915
20
-124.721
11
87.4915
21
-124.022
0
LINE
8
BLACK
6
CONTINUOUS
10
87.4915
20
-124.022
11
87.4915
21
-124.022
0
LINE
8
BLACK
6
CONTINUOUS
10
87.4915
20
-124.022
11
87.4915
21
-31.1084
0
LINE
8
BLACK
6
CONTINUOUS
10
87.4915
20
-31.1084
11
87.4923
21
-31.1038
0
LINE
8
BLACK
6
CONTINUOUS
10
87.4923
20
-31.1038
11
87.5719
21
-30.4739
0
LINE
8
BLACK
6
CONTINUOUS
10
87.5719
20
-30.4739
11
87.5737
21
-30.4647
0
LINE
8
BLACK
6
CONTINUOUS
10
87.5737
20
-30.4647
11
87.5754
21
-30.4603
0
LINE
8
BLACK
6
CONTINUOUS
10
87.5754
20
-30.4603
11
87.5766
21
-30.4557
0
LINE
8
BLACK
6
CONTINUOUS
10
87.5766
20
-30.4557
11
87.8109
21
-29.8637
0
LINE
8
BLACK
6
CONTINUOUS
10
87.8109
20
-29.8637
11
87.8109
21
-29.8637
0
LINE
8
BLACK
6
CONTINUOUS
10
87.8109
20
-29.8637
11
87.811
21
-29.8637
0
LINE
8
BLACK
6
CONTINUOUS
10
87.811
20
-29.8637
11
87.815
21
-29.8552
0
LINE
8
BLACK
6
CONTINUOUS
10
87.815
20
-29.8552
11
87.8177
21
-29.8514
0
LINE
8
BLACK
6
CONTINUOUS
10
87.8177
20
-29.8514
11
87.82
21
-29.8473
0
LINE
8
BLACK
6
CONTINUOUS
10
87.82
20
-29.8473
11
88.1942
21
-29.3322
0
LINE
8
BLACK
6
CONTINUOUS
10
88.1942
20
-29.3322
11
88.1942
21
-29.3322
0
LINE
8
BLACK
6
CONTINUOUS
10
88.1942
20
-29.3322
11
88.1943
21
-29.3322
0
LINE
8
BLACK
6
CONTINUOUS
10
88.1943
20
-29.3322
11
88.2002
21
-29.3249
0
LINE
8
BLACK
6
CONTINUOUS
10
88.2002
20
-29.3249
11
88.2039
21
-29.3219
0
LINE
8
BLACK
6
CONTINUOUS
10
88.2039
20
-29.3219
11
88.2071
21
-29.3185
0
LINE
8
BLACK
6
CONTINUOUS
10
88.2071
20
-29.3185
11
88.6977
21
-28.9126
0
LINE
8
BLACK
6
CONTINUOUS
10
88.6977
20
-28.9126
11
88.6977
21
-28.9126
0
LINE
8
BLACK
6
CONTINUOUS
10
88.6977
20
-28.9126
11
88.6977
21
-28.9126
0
LINE
8
BLACK
6
CONTINUOUS
10
88.6977
20
-28.9126
11
88.7053
21
-28.9071
0
LINE
8
BLACK
6
CONTINUOUS
10
88.7053
20
-28.9071
11
88.7096
21
-28.9051
0
LINE
8
BLACK
6
CONTINUOUS
10
88.7096
20
-28.9051
11
88.7136
21
-28.9025
0
LINE
8
BLACK
6
CONTINUOUS
10
88.7136
20
-28.9025
11
89.2897
21
-28.6315
0
LINE
8
BLACK
6
CONTINUOUS
10
89.2897
20
-28.6315
11
89.2984
21
-28.628
0
LINE
8
BLACK
6
CONTINUOUS
10
89.2984
20
-28.628
11
89.3031
21
-28.6271
0
LINE
8
BLACK
6
CONTINUOUS
10
89.3031
20
-28.6271
11
89.3075
21
-28.6256
0
LINE
8
BLACK
6
CONTINUOUS
10
89.3075
20
-28.6256
11
89.933
21
-28.5063
0
LINE
8
BLACK
6
CONTINUOUS
10
89.933
20
-28.5063
11
89.9423
21
-28.5052
0
LINE
8
BLACK
6
CONTINUOUS
10
89.9423
20
-28.5052
11
89.9435
21
-28.5052
0
LINE
8
BLACK
6
CONTINUOUS
10
89.9435
20
-28.5052
11
89.9447
21
-28.505
0
LINE
8
BLACK
6
CONTINUOUS
10
89.9447
20
-28.505
11
90.0989
21
-28.5002
0
LINE
8
BLACK
6
CONTINUOUS
10
90.0989
20
-28.5002
11
90.1001
21
-28.5
0
LINE
8
BLACK
6
CONTINUOUS
10
90.1001
20
-28.5
11
147.454
21
-28.627
0
LINE
8
BLACK
6
CONTINUOUS
10
87.7218
20
-125.319
11
87.9553
21
-125.883
0
LINE
8
BLACK
6
CONTINUOUS
10
87.9553
20
-125.883
11
88.3267
21
-126.367
0
LINE
8
BLACK
6
CONTINUOUS
10
88.3267
20
-126.367
11
88.8108
21
-126.738
0
LINE
8
BLACK
6
CONTINUOUS
10
88.8108
20
-126.738
11
89.3745
21
-126.972
0
LINE
8
BLACK
6
CONTINUOUS
10
89.3745
20
-126.972
11
89.9844
21
-127.052
0
LINE
8
BLACK
6
CONTINUOUS
10
89.9844
20
-127.052
11
147.442
21
-126.989
0
LINE
8
BLACK
6
CONTINUOUS
10
147.442
20
-126.989
11
148.019
21
-126.913
0
LINE
8
BLACK
6
CONTINUOUS
10
148.019
20
-126.913
11
148.552
21
-126.692
0
LINE
8
BLACK
6
CONTINUOUS
10
148.552
20
-126.692
11
149.01
21
-126.34
0
LINE
8
BLACK
6
CONTINUOUS
10
149.01
20
-126.34
11
149.361
21
-125.883
0
LINE
8
BLACK
6
CONTINUOUS
10
149.361
20
-125.883
11
149.582
21
-125.35
0
LINE
8
BLACK
6
CONTINUOUS
10
149.582
20
-125.35
11
149.658
21
-124.773
0
LINE
8
BLACK
6
CONTINUOUS
10
149.658
20
-124.773
11
149.658
21
-124.085
0
LINE
8
BLACK
6
CONTINUOUS
10
149.658
20
-124.085
11
149.658
21
-124.085
0
LINE
8
BLACK
6
CONTINUOUS
10
149.658
20
-124.085
11
149.658
21
-124.079
0
LINE
8
BLACK
6
CONTINUOUS
10
149.658
20
-124.079
11
149.658
21
-124.072
0
LINE
8
BLACK
6
CONTINUOUS
10
149.658
20
-124.072
11
149.658
21
-124.072
0
LINE
8
BLACK
6
CONTINUOUS
10
149.658
20
-124.072
11
149.848
21
-31.1796
0
LINE
8
BLACK
6
CONTINUOUS
10
149.848
20
-31.1796
11
149.844
21
-31.0313
0
LINE
8
BLACK
6
CONTINUOUS
10
149.844
20
-31.0313
11
149.73
21
-30.4366
0
LINE
8
BLACK
6
CONTINUOUS
10
149.73
20
-30.4366
11
149.474
21
-29.892
0
LINE
8
BLACK
6
CONTINUOUS
10
149.474
20
-29.892
11
149.091
21
-29.4283
0
LINE
8
BLACK
6
CONTINUOUS
10
149.091
20
-29.4283
11
148.604
21
-29.0746
0
LINE
8
BLACK
6
CONTINUOUS
10
148.604
20
-29.0746
11
148.044
21
-28.853
0
LINE
8
BLACK
6
CONTINUOUS
10
148.044
20
-28.853
11
147.442
21
-28.777
0
LINE
8
BLACK
6
CONTINUOUS
10
147.442
20
-28.777
11
90.1076
21
-28.65
0
LINE
8
BLACK
6
CONTINUOUS
10
90.1076
20
-28.65
11
89.9553
21
-28.6548
0
LINE
8
BLACK
6
CONTINUOUS
10
89.9553
20
-28.6548
11
89.345
21
-28.7712
0
LINE
8
BLACK
6
CONTINUOUS
10
89.345
20
-28.7712
11
88.786
21
-29.0342
0
LINE
8
BLACK
6
CONTINUOUS
10
88.786
20
-29.0342
11
88.31
21
-29.428
0
LINE
8
BLACK
6
CONTINUOUS
10
88.31
20
-29.428
11
87.9469
21
-29.9278
0
LINE
8
BLACK
6
CONTINUOUS
10
87.9469
20
-29.9278
11
87.7195
21
-30.5021
0
LINE
8
BLACK
6
CONTINUOUS
10
87.7195
20
-30.5021
11
87.6415
21
-31.1197
0
LINE
8
BLACK
6
CONTINUOUS
10
87.6415
20
-31.1197
11
87.6415
21
-124.709
0
LINE
8
BLACK
6
CONTINUOUS
10
87.6415
20
-124.709
11
87.7218
21
-125.319
  0
ENDSEC
  0
EOF
